<mxfile host="app.diagrams.net" agent="Mozilla/5.0 (Macintosh; Intel Mac OS X 10_15_7) AppleWebKit/537.36 (KHTML, like Gecko) Chrome/133.0.0.0 Safari/537.36" version="26.0.16">
  <diagram name="Page-1" id="S4MQcqyGjKnAV-RhAmHz">
    <mxGraphModel dx="1553" dy="1855" grid="1" gridSize="10" guides="1" tooltips="1" connect="1" arrows="1" fold="1" page="1" pageScale="1" pageWidth="690" pageHeight="980" math="0" shadow="0">
      <root>
        <mxCell id="0" />
        <mxCell id="1" parent="0" />
        <mxCell id="7M6Ktfc9YNMzdn7Puqao-2" value="Login Status Control" style="swimlane;childLayout=stackLayout;resizeParent=1;resizeParentMax=0;startSize=20;html=1;" vertex="1" parent="1">
          <mxGeometry x="40" y="-30" width="1420" height="1920" as="geometry" />
        </mxCell>
        <mxCell id="7M6Ktfc9YNMzdn7Puqao-3" value="Session Epics" style="swimlane;startSize=20;html=1;" vertex="1" parent="7M6Ktfc9YNMzdn7Puqao-2">
          <mxGeometry y="20" width="440" height="1900" as="geometry" />
        </mxCell>
        <mxCell id="7M6Ktfc9YNMzdn7Puqao-7" value="" style="edgeStyle=orthogonalEdgeStyle;rounded=0;orthogonalLoop=1;jettySize=auto;html=1;" edge="1" parent="7M6Ktfc9YNMzdn7Puqao-3" source="7M6Ktfc9YNMzdn7Puqao-1" target="7M6Ktfc9YNMzdn7Puqao-6">
          <mxGeometry relative="1" as="geometry" />
        </mxCell>
        <mxCell id="7M6Ktfc9YNMzdn7Puqao-1" value="Start" style="rounded=1;whiteSpace=wrap;html=1;" vertex="1" parent="7M6Ktfc9YNMzdn7Puqao-3">
          <mxGeometry x="185" y="50" width="120" height="60" as="geometry" />
        </mxCell>
        <mxCell id="7M6Ktfc9YNMzdn7Puqao-12" value="Yes" style="edgeStyle=orthogonalEdgeStyle;rounded=0;orthogonalLoop=1;jettySize=auto;html=1;" edge="1" parent="7M6Ktfc9YNMzdn7Puqao-3" source="7M6Ktfc9YNMzdn7Puqao-6" target="7M6Ktfc9YNMzdn7Puqao-11">
          <mxGeometry relative="1" as="geometry" />
        </mxCell>
        <mxCell id="7M6Ktfc9YNMzdn7Puqao-6" value="have session token" style="rhombus;whiteSpace=wrap;html=1;rounded=1;" vertex="1" parent="7M6Ktfc9YNMzdn7Puqao-3">
          <mxGeometry x="187.5" y="160" width="115" height="110" as="geometry" />
        </mxCell>
        <mxCell id="7M6Ktfc9YNMzdn7Puqao-14" value="" style="edgeStyle=orthogonalEdgeStyle;rounded=0;orthogonalLoop=1;jettySize=auto;html=1;" edge="1" parent="7M6Ktfc9YNMzdn7Puqao-3" source="7M6Ktfc9YNMzdn7Puqao-11" target="7M6Ktfc9YNMzdn7Puqao-13">
          <mxGeometry relative="1" as="geometry" />
        </mxCell>
        <mxCell id="7M6Ktfc9YNMzdn7Puqao-11" value="parse lastActivity" style="whiteSpace=wrap;html=1;rounded=1;" vertex="1" parent="7M6Ktfc9YNMzdn7Puqao-3">
          <mxGeometry x="185" y="330" width="120" height="60" as="geometry" />
        </mxCell>
        <mxCell id="7M6Ktfc9YNMzdn7Puqao-25" value="" style="edgeStyle=orthogonalEdgeStyle;rounded=0;orthogonalLoop=1;jettySize=auto;html=1;" edge="1" parent="7M6Ktfc9YNMzdn7Puqao-3" source="7M6Ktfc9YNMzdn7Puqao-13" target="7M6Ktfc9YNMzdn7Puqao-24">
          <mxGeometry relative="1" as="geometry" />
        </mxCell>
        <mxCell id="7M6Ktfc9YNMzdn7Puqao-13" value="lastActivity is nan or is over IDLE_TIMEOUT" style="rhombus;whiteSpace=wrap;html=1;rounded=1;" vertex="1" parent="7M6Ktfc9YNMzdn7Puqao-3">
          <mxGeometry x="156.25" y="450" width="177.5" height="150" as="geometry" />
        </mxCell>
        <mxCell id="7M6Ktfc9YNMzdn7Puqao-30" value="" style="edgeStyle=orthogonalEdgeStyle;rounded=0;orthogonalLoop=1;jettySize=auto;html=1;" edge="1" parent="7M6Ktfc9YNMzdn7Puqao-3" source="7M6Ktfc9YNMzdn7Puqao-24" target="7M6Ktfc9YNMzdn7Puqao-29">
          <mxGeometry relative="1" as="geometry" />
        </mxCell>
        <mxCell id="7M6Ktfc9YNMzdn7Puqao-24" value="get haveAllTokens" style="whiteSpace=wrap;html=1;rounded=1;" vertex="1" parent="7M6Ktfc9YNMzdn7Puqao-3">
          <mxGeometry x="185" y="725" width="120" height="55" as="geometry" />
        </mxCell>
        <mxCell id="7M6Ktfc9YNMzdn7Puqao-28" style="edgeStyle=orthogonalEdgeStyle;rounded=0;orthogonalLoop=1;jettySize=auto;html=1;entryX=0;entryY=0.5;entryDx=0;entryDy=0;dashed=1;" edge="1" parent="7M6Ktfc9YNMzdn7Puqao-3" source="7M6Ktfc9YNMzdn7Puqao-27" target="7M6Ktfc9YNMzdn7Puqao-24">
          <mxGeometry relative="1" as="geometry" />
        </mxCell>
        <mxCell id="7M6Ktfc9YNMzdn7Puqao-27" value="session.token &amp;amp;&amp;amp; session.accessToken" style="shape=note;whiteSpace=wrap;html=1;backgroundOutline=1;fontColor=#000000;darkOpacity=0.05;fillColor=#FFF9B2;strokeColor=none;fillStyle=solid;direction=west;gradientDirection=north;gradientColor=#FFF2A1;shadow=1;size=20;pointerEvents=1;" vertex="1" parent="7M6Ktfc9YNMzdn7Puqao-3">
          <mxGeometry x="16.25" y="672.5" width="123.75" height="160" as="geometry" />
        </mxCell>
        <mxCell id="7M6Ktfc9YNMzdn7Puqao-34" value="" style="edgeStyle=orthogonalEdgeStyle;rounded=0;orthogonalLoop=1;jettySize=auto;html=1;" edge="1" parent="7M6Ktfc9YNMzdn7Puqao-3" source="7M6Ktfc9YNMzdn7Puqao-29" target="7M6Ktfc9YNMzdn7Puqao-33">
          <mxGeometry relative="1" as="geometry" />
        </mxCell>
        <mxCell id="7M6Ktfc9YNMzdn7Puqao-29" value="get hasSelectedCompany" style="whiteSpace=wrap;html=1;rounded=1;" vertex="1" parent="7M6Ktfc9YNMzdn7Puqao-3">
          <mxGeometry x="167.5" y="857.5" width="155" height="60" as="geometry" />
        </mxCell>
        <mxCell id="7M6Ktfc9YNMzdn7Puqao-32" style="edgeStyle=orthogonalEdgeStyle;rounded=0;orthogonalLoop=1;jettySize=auto;html=1;entryX=0;entryY=0.5;entryDx=0;entryDy=0;dashed=1;" edge="1" parent="7M6Ktfc9YNMzdn7Puqao-3" source="7M6Ktfc9YNMzdn7Puqao-31" target="7M6Ktfc9YNMzdn7Puqao-29">
          <mxGeometry relative="1" as="geometry" />
        </mxCell>
        <mxCell id="7M6Ktfc9YNMzdn7Puqao-31" value="company.id" style="shape=note;whiteSpace=wrap;html=1;backgroundOutline=1;fontColor=#000000;darkOpacity=0.05;fillColor=#FFF9B2;strokeColor=none;fillStyle=solid;direction=west;gradientDirection=north;gradientColor=#FFF2A1;shadow=1;size=20;pointerEvents=1;" vertex="1" parent="7M6Ktfc9YNMzdn7Puqao-3">
          <mxGeometry x="8.13" y="856.25" width="91.87" height="62.5" as="geometry" />
        </mxCell>
        <mxCell id="7M6Ktfc9YNMzdn7Puqao-43" value="" style="edgeStyle=orthogonalEdgeStyle;rounded=0;orthogonalLoop=1;jettySize=auto;html=1;" edge="1" parent="7M6Ktfc9YNMzdn7Puqao-3" source="7M6Ktfc9YNMzdn7Puqao-33" target="7M6Ktfc9YNMzdn7Puqao-42">
          <mxGeometry relative="1" as="geometry" />
        </mxCell>
        <mxCell id="7M6Ktfc9YNMzdn7Puqao-33" value="hasAllTokens and hasSelectedCompany" style="rhombus;whiteSpace=wrap;html=1;rounded=1;" vertex="1" parent="7M6Ktfc9YNMzdn7Puqao-3">
          <mxGeometry x="167.5" y="1050" width="155" height="107.5" as="geometry" />
        </mxCell>
        <mxCell id="7M6Ktfc9YNMzdn7Puqao-49" value="" style="edgeStyle=orthogonalEdgeStyle;rounded=0;orthogonalLoop=1;jettySize=auto;html=1;" edge="1" parent="7M6Ktfc9YNMzdn7Puqao-3" source="7M6Ktfc9YNMzdn7Puqao-42" target="7M6Ktfc9YNMzdn7Puqao-48">
          <mxGeometry relative="1" as="geometry" />
        </mxCell>
        <mxCell id="7M6Ktfc9YNMzdn7Puqao-42" value="token retrieved" style="whiteSpace=wrap;html=1;rounded=1;" vertex="1" parent="7M6Ktfc9YNMzdn7Puqao-3">
          <mxGeometry x="185" y="1261.25" width="120" height="60" as="geometry" />
        </mxCell>
        <mxCell id="7M6Ktfc9YNMzdn7Puqao-53" style="edgeStyle=orthogonalEdgeStyle;rounded=0;orthogonalLoop=1;jettySize=auto;html=1;" edge="1" parent="7M6Ktfc9YNMzdn7Puqao-3" source="7M6Ktfc9YNMzdn7Puqao-48" target="7M6Ktfc9YNMzdn7Puqao-51">
          <mxGeometry relative="1" as="geometry" />
        </mxCell>
        <mxCell id="7M6Ktfc9YNMzdn7Puqao-48" value="fetch new permissions without token" style="whiteSpace=wrap;html=1;rounded=1;" vertex="1" parent="7M6Ktfc9YNMzdn7Puqao-3">
          <mxGeometry x="185" y="1401.25" width="120" height="60" as="geometry" />
        </mxCell>
        <mxCell id="7M6Ktfc9YNMzdn7Puqao-51" value="End" style="whiteSpace=wrap;html=1;rounded=1;" vertex="1" parent="7M6Ktfc9YNMzdn7Puqao-3">
          <mxGeometry x="185" y="1640" width="120" height="60" as="geometry" />
        </mxCell>
        <mxCell id="7M6Ktfc9YNMzdn7Puqao-4" value="Session Reducer" style="swimlane;startSize=20;html=1;" vertex="1" parent="7M6Ktfc9YNMzdn7Puqao-2">
          <mxGeometry x="440" y="20" width="390" height="1900" as="geometry" />
        </mxCell>
        <mxCell id="7M6Ktfc9YNMzdn7Puqao-8" value="set isPending false" style="whiteSpace=wrap;html=1;rounded=1;" vertex="1" parent="7M6Ktfc9YNMzdn7Puqao-4">
          <mxGeometry x="40" y="185" width="120" height="60" as="geometry" />
        </mxCell>
        <mxCell id="7M6Ktfc9YNMzdn7Puqao-19" value="" style="edgeStyle=orthogonalEdgeStyle;rounded=0;orthogonalLoop=1;jettySize=auto;html=1;" edge="1" parent="7M6Ktfc9YNMzdn7Puqao-4" source="7M6Ktfc9YNMzdn7Puqao-15" target="7M6Ktfc9YNMzdn7Puqao-18">
          <mxGeometry relative="1" as="geometry" />
        </mxCell>
        <mxCell id="7M6Ktfc9YNMzdn7Puqao-15" value="logout user with time out" style="whiteSpace=wrap;html=1;rounded=1;" vertex="1" parent="7M6Ktfc9YNMzdn7Puqao-4">
          <mxGeometry x="40" y="495" width="120" height="60" as="geometry" />
        </mxCell>
        <mxCell id="7M6Ktfc9YNMzdn7Puqao-21" value="" style="edgeStyle=orthogonalEdgeStyle;rounded=0;orthogonalLoop=1;jettySize=auto;html=1;" edge="1" parent="7M6Ktfc9YNMzdn7Puqao-4" source="7M6Ktfc9YNMzdn7Puqao-18" target="7M6Ktfc9YNMzdn7Puqao-20">
          <mxGeometry relative="1" as="geometry" />
        </mxCell>
        <mxCell id="7M6Ktfc9YNMzdn7Puqao-18" value="logout user" style="whiteSpace=wrap;html=1;rounded=1;" vertex="1" parent="7M6Ktfc9YNMzdn7Puqao-4">
          <mxGeometry x="40" y="635" width="120" height="60" as="geometry" />
        </mxCell>
        <mxCell id="7M6Ktfc9YNMzdn7Puqao-23" value="" style="edgeStyle=orthogonalEdgeStyle;rounded=0;orthogonalLoop=1;jettySize=auto;html=1;" edge="1" parent="7M6Ktfc9YNMzdn7Puqao-4" source="7M6Ktfc9YNMzdn7Puqao-20" target="7M6Ktfc9YNMzdn7Puqao-22">
          <mxGeometry relative="1" as="geometry" />
        </mxCell>
        <mxCell id="7M6Ktfc9YNMzdn7Puqao-20" value="clear session" style="whiteSpace=wrap;html=1;rounded=1;" vertex="1" parent="7M6Ktfc9YNMzdn7Puqao-4">
          <mxGeometry x="40" y="775" width="120" height="60" as="geometry" />
        </mxCell>
        <mxCell id="7M6Ktfc9YNMzdn7Puqao-22" value="navigate to login page" style="whiteSpace=wrap;html=1;rounded=1;" vertex="1" parent="7M6Ktfc9YNMzdn7Puqao-4">
          <mxGeometry x="35" y="920" width="130" height="60" as="geometry" />
        </mxCell>
        <mxCell id="7M6Ktfc9YNMzdn7Puqao-38" value="" style="edgeStyle=orthogonalEdgeStyle;rounded=0;orthogonalLoop=1;jettySize=auto;html=1;" edge="1" parent="7M6Ktfc9YNMzdn7Puqao-4" source="7M6Ktfc9YNMzdn7Puqao-35" target="7M6Ktfc9YNMzdn7Puqao-37">
          <mxGeometry relative="1" as="geometry" />
        </mxCell>
        <mxCell id="7M6Ktfc9YNMzdn7Puqao-35" value="fetch MenuItems" style="whiteSpace=wrap;html=1;rounded=1;" vertex="1" parent="7M6Ktfc9YNMzdn7Puqao-4">
          <mxGeometry x="40" y="1073.75" width="120" height="60" as="geometry" />
        </mxCell>
        <mxCell id="7M6Ktfc9YNMzdn7Puqao-40" value="" style="edgeStyle=orthogonalEdgeStyle;rounded=0;orthogonalLoop=1;jettySize=auto;html=1;" edge="1" parent="7M6Ktfc9YNMzdn7Puqao-4" source="7M6Ktfc9YNMzdn7Puqao-37" target="7M6Ktfc9YNMzdn7Puqao-39">
          <mxGeometry relative="1" as="geometry" />
        </mxCell>
        <mxCell id="7M6Ktfc9YNMzdn7Puqao-37" value="select company" style="whiteSpace=wrap;html=1;rounded=1;" vertex="1" parent="7M6Ktfc9YNMzdn7Puqao-4">
          <mxGeometry x="40" y="1213.75" width="120" height="60" as="geometry" />
        </mxCell>
        <mxCell id="7M6Ktfc9YNMzdn7Puqao-47" value="" style="edgeStyle=orthogonalEdgeStyle;rounded=0;orthogonalLoop=1;jettySize=auto;html=1;" edge="1" parent="7M6Ktfc9YNMzdn7Puqao-4" source="7M6Ktfc9YNMzdn7Puqao-39" target="7M6Ktfc9YNMzdn7Puqao-46">
          <mxGeometry relative="1" as="geometry" />
        </mxCell>
        <mxCell id="7M6Ktfc9YNMzdn7Puqao-39" value="token retrieved after rehydrate" style="whiteSpace=wrap;html=1;rounded=1;" vertex="1" parent="7M6Ktfc9YNMzdn7Puqao-4">
          <mxGeometry x="40" y="1353.75" width="120" height="60" as="geometry" />
        </mxCell>
        <mxCell id="7M6Ktfc9YNMzdn7Puqao-45" style="edgeStyle=orthogonalEdgeStyle;rounded=0;orthogonalLoop=1;jettySize=auto;html=1;entryX=1;entryY=0.5;entryDx=0;entryDy=0;dashed=1;exitX=0.5;exitY=1;exitDx=0;exitDy=0;exitPerimeter=0;" edge="1" parent="7M6Ktfc9YNMzdn7Puqao-4" source="7M6Ktfc9YNMzdn7Puqao-44" target="7M6Ktfc9YNMzdn7Puqao-37">
          <mxGeometry relative="1" as="geometry" />
        </mxCell>
        <mxCell id="7M6Ktfc9YNMzdn7Puqao-44" value="will clear accessToken and get new accessToken" style="shape=note;whiteSpace=wrap;html=1;backgroundOutline=1;fontColor=#000000;darkOpacity=0.05;fillColor=#FFF9B2;strokeColor=none;fillStyle=solid;direction=west;gradientDirection=north;gradientColor=#FFF2A1;shadow=1;size=20;pointerEvents=1;" vertex="1" parent="7M6Ktfc9YNMzdn7Puqao-4">
          <mxGeometry x="165" y="1670" width="150" height="90" as="geometry" />
        </mxCell>
        <mxCell id="7M6Ktfc9YNMzdn7Puqao-46" value="fetch new permissions with token" style="whiteSpace=wrap;html=1;rounded=1;" vertex="1" parent="7M6Ktfc9YNMzdn7Puqao-4">
          <mxGeometry x="30" y="1493.75" width="140" height="60" as="geometry" />
        </mxCell>
        <mxCell id="7M6Ktfc9YNMzdn7Puqao-75" value="update lastActivity to now" style="rounded=1;whiteSpace=wrap;html=1;" vertex="1" parent="7M6Ktfc9YNMzdn7Puqao-4">
          <mxGeometry x="230" y="380" width="150" height="60" as="geometry" />
        </mxCell>
        <mxCell id="7M6Ktfc9YNMzdn7Puqao-9" value="" style="edgeStyle=orthogonalEdgeStyle;rounded=0;orthogonalLoop=1;jettySize=auto;html=1;" edge="1" parent="7M6Ktfc9YNMzdn7Puqao-2" source="7M6Ktfc9YNMzdn7Puqao-6" target="7M6Ktfc9YNMzdn7Puqao-8">
          <mxGeometry relative="1" as="geometry" />
        </mxCell>
        <mxCell id="7M6Ktfc9YNMzdn7Puqao-10" value="No" style="edgeLabel;html=1;align=center;verticalAlign=middle;resizable=0;points=[];" vertex="1" connectable="0" parent="7M6Ktfc9YNMzdn7Puqao-9">
          <mxGeometry x="-0.2426" y="-1" relative="1" as="geometry">
            <mxPoint x="1" as="offset" />
          </mxGeometry>
        </mxCell>
        <mxCell id="7M6Ktfc9YNMzdn7Puqao-16" value="" style="edgeStyle=orthogonalEdgeStyle;rounded=0;orthogonalLoop=1;jettySize=auto;html=1;" edge="1" parent="7M6Ktfc9YNMzdn7Puqao-2" source="7M6Ktfc9YNMzdn7Puqao-13" target="7M6Ktfc9YNMzdn7Puqao-15">
          <mxGeometry relative="1" as="geometry" />
        </mxCell>
        <mxCell id="7M6Ktfc9YNMzdn7Puqao-17" value="Yes" style="edgeLabel;html=1;align=center;verticalAlign=middle;resizable=0;points=[];" vertex="1" connectable="0" parent="7M6Ktfc9YNMzdn7Puqao-16">
          <mxGeometry x="-0.3763" relative="1" as="geometry">
            <mxPoint as="offset" />
          </mxGeometry>
        </mxCell>
        <mxCell id="7M6Ktfc9YNMzdn7Puqao-36" value="" style="edgeStyle=orthogonalEdgeStyle;rounded=0;orthogonalLoop=1;jettySize=auto;html=1;" edge="1" parent="7M6Ktfc9YNMzdn7Puqao-2" source="7M6Ktfc9YNMzdn7Puqao-33" target="7M6Ktfc9YNMzdn7Puqao-35">
          <mxGeometry relative="1" as="geometry" />
        </mxCell>
        <mxCell id="7M6Ktfc9YNMzdn7Puqao-41" value="Yes" style="edgeLabel;html=1;align=center;verticalAlign=middle;resizable=0;points=[];" vertex="1" connectable="0" parent="7M6Ktfc9YNMzdn7Puqao-36">
          <mxGeometry x="-0.2861" relative="1" as="geometry">
            <mxPoint as="offset" />
          </mxGeometry>
        </mxCell>
        <mxCell id="7M6Ktfc9YNMzdn7Puqao-52" value="" style="edgeStyle=orthogonalEdgeStyle;rounded=0;orthogonalLoop=1;jettySize=auto;html=1;exitX=0.5;exitY=1;exitDx=0;exitDy=0;entryX=1;entryY=0.5;entryDx=0;entryDy=0;" edge="1" parent="7M6Ktfc9YNMzdn7Puqao-2" source="7M6Ktfc9YNMzdn7Puqao-46" target="7M6Ktfc9YNMzdn7Puqao-51">
          <mxGeometry relative="1" as="geometry" />
        </mxCell>
        <mxCell id="7M6Ktfc9YNMzdn7Puqao-76" style="edgeStyle=orthogonalEdgeStyle;rounded=0;orthogonalLoop=1;jettySize=auto;html=1;exitX=0;exitY=0.5;exitDx=0;exitDy=0;" edge="1" parent="7M6Ktfc9YNMzdn7Puqao-2" source="7M6Ktfc9YNMzdn7Puqao-70" target="7M6Ktfc9YNMzdn7Puqao-75">
          <mxGeometry relative="1" as="geometry" />
        </mxCell>
        <mxCell id="7M6Ktfc9YNMzdn7Puqao-5" value="Auto Logout Service" style="swimlane;startSize=20;html=1;" vertex="1" parent="7M6Ktfc9YNMzdn7Puqao-2">
          <mxGeometry x="830" y="20" width="590" height="1900" as="geometry" />
        </mxCell>
        <mxCell id="7M6Ktfc9YNMzdn7Puqao-57" value="" style="edgeStyle=orthogonalEdgeStyle;rounded=0;orthogonalLoop=1;jettySize=auto;html=1;" edge="1" parent="7M6Ktfc9YNMzdn7Puqao-5" source="7M6Ktfc9YNMzdn7Puqao-55" target="7M6Ktfc9YNMzdn7Puqao-56">
          <mxGeometry relative="1" as="geometry" />
        </mxCell>
        <mxCell id="7M6Ktfc9YNMzdn7Puqao-55" value="Start" style="rounded=1;whiteSpace=wrap;html=1;" vertex="1" parent="7M6Ktfc9YNMzdn7Puqao-5">
          <mxGeometry x="350" y="80" width="120" height="60" as="geometry" />
        </mxCell>
        <mxCell id="7M6Ktfc9YNMzdn7Puqao-61" value="" style="edgeStyle=orthogonalEdgeStyle;rounded=0;orthogonalLoop=1;jettySize=auto;html=1;" edge="1" parent="7M6Ktfc9YNMzdn7Puqao-5" source="7M6Ktfc9YNMzdn7Puqao-56" target="7M6Ktfc9YNMzdn7Puqao-60">
          <mxGeometry relative="1" as="geometry" />
        </mxCell>
        <mxCell id="7M6Ktfc9YNMzdn7Puqao-56" value="merge triggers" style="whiteSpace=wrap;html=1;rounded=1;" vertex="1" parent="7M6Ktfc9YNMzdn7Puqao-5">
          <mxGeometry x="350" y="220" width="120" height="60" as="geometry" />
        </mxCell>
        <mxCell id="7M6Ktfc9YNMzdn7Puqao-59" style="edgeStyle=orthogonalEdgeStyle;rounded=0;orthogonalLoop=1;jettySize=auto;html=1;entryX=0;entryY=0.5;entryDx=0;entryDy=0;dashed=1;exitX=0;exitY=0.5;exitDx=0;exitDy=0;exitPerimeter=0;" edge="1" parent="7M6Ktfc9YNMzdn7Puqao-5" source="7M6Ktfc9YNMzdn7Puqao-58" target="7M6Ktfc9YNMzdn7Puqao-56">
          <mxGeometry relative="1" as="geometry">
            <mxPoint x="340" y="250" as="sourcePoint" />
          </mxGeometry>
        </mxCell>
        <mxCell id="7M6Ktfc9YNMzdn7Puqao-58" value="&lt;div&gt;Have Those Triggers&lt;/div&gt;&lt;ol&gt;&lt;li&gt;mouse move&lt;/li&gt;&lt;li&gt;click&lt;/li&gt;&lt;li&gt;keydown&lt;/li&gt;&lt;li&gt;resetTimers&lt;/li&gt;&lt;li&gt;shouldTrackLogoutTimers&lt;/li&gt;&lt;/ol&gt;&lt;div&gt;&lt;div&gt;&lt;br&gt;&lt;/div&gt;&lt;/div&gt;" style="shape=note;whiteSpace=wrap;html=1;backgroundOutline=1;fontColor=#000000;darkOpacity=0.05;fillColor=#FFF9B2;strokeColor=none;fillStyle=solid;direction=west;gradientDirection=north;gradientColor=#FFF2A1;shadow=1;size=20;pointerEvents=1;" vertex="1" parent="7M6Ktfc9YNMzdn7Puqao-5">
          <mxGeometry x="40" y="170" width="190" height="160" as="geometry" />
        </mxCell>
        <mxCell id="7M6Ktfc9YNMzdn7Puqao-63" value="" style="edgeStyle=orthogonalEdgeStyle;rounded=0;orthogonalLoop=1;jettySize=auto;html=1;" edge="1" parent="7M6Ktfc9YNMzdn7Puqao-5" source="7M6Ktfc9YNMzdn7Puqao-60" target="7M6Ktfc9YNMzdn7Puqao-62">
          <mxGeometry relative="1" as="geometry" />
        </mxCell>
        <mxCell id="7M6Ktfc9YNMzdn7Puqao-60" value="throttleTime for 60s" style="whiteSpace=wrap;html=1;rounded=1;" vertex="1" parent="7M6Ktfc9YNMzdn7Puqao-5">
          <mxGeometry x="350" y="360" width="120" height="60" as="geometry" />
        </mxCell>
        <mxCell id="7M6Ktfc9YNMzdn7Puqao-65" value="" style="edgeStyle=orthogonalEdgeStyle;rounded=0;orthogonalLoop=1;jettySize=auto;html=1;" edge="1" parent="7M6Ktfc9YNMzdn7Puqao-5" source="7M6Ktfc9YNMzdn7Puqao-62" target="7M6Ktfc9YNMzdn7Puqao-64">
          <mxGeometry relative="1" as="geometry" />
        </mxCell>
        <mxCell id="7M6Ktfc9YNMzdn7Puqao-62" value="combine&lt;br&gt;sessionState and should track logout" style="whiteSpace=wrap;html=1;rounded=1;" vertex="1" parent="7M6Ktfc9YNMzdn7Puqao-5">
          <mxGeometry x="350" y="500" width="120" height="60" as="geometry" />
        </mxCell>
        <mxCell id="7M6Ktfc9YNMzdn7Puqao-69" value="" style="edgeStyle=orthogonalEdgeStyle;rounded=0;orthogonalLoop=1;jettySize=auto;html=1;" edge="1" parent="7M6Ktfc9YNMzdn7Puqao-5" source="7M6Ktfc9YNMzdn7Puqao-64" target="7M6Ktfc9YNMzdn7Puqao-68">
          <mxGeometry relative="1" as="geometry" />
        </mxCell>
        <mxCell id="7M6Ktfc9YNMzdn7Puqao-64" value="calc isUserLogin" style="whiteSpace=wrap;html=1;rounded=1;" vertex="1" parent="7M6Ktfc9YNMzdn7Puqao-5">
          <mxGeometry x="350" y="640" width="120" height="60" as="geometry" />
        </mxCell>
        <mxCell id="7M6Ktfc9YNMzdn7Puqao-67" style="edgeStyle=orthogonalEdgeStyle;rounded=0;orthogonalLoop=1;jettySize=auto;html=1;exitX=0;exitY=0.5;exitDx=0;exitDy=0;exitPerimeter=0;entryX=0;entryY=0.5;entryDx=0;entryDy=0;dashed=1;" edge="1" parent="7M6Ktfc9YNMzdn7Puqao-5" source="7M6Ktfc9YNMzdn7Puqao-66" target="7M6Ktfc9YNMzdn7Puqao-64">
          <mxGeometry relative="1" as="geometry" />
        </mxCell>
        <mxCell id="7M6Ktfc9YNMzdn7Puqao-66" value="isUserLogin = session.user &amp;amp;&amp;amp; session.token &amp;amp;&amp;amp; session.isPending" style="shape=note;whiteSpace=wrap;html=1;backgroundOutline=1;fontColor=#000000;darkOpacity=0.05;fillColor=#FFF9B2;strokeColor=none;fillStyle=solid;direction=west;gradientDirection=north;gradientColor=#FFF2A1;shadow=1;size=20;pointerEvents=1;" vertex="1" parent="7M6Ktfc9YNMzdn7Puqao-5">
          <mxGeometry x="55" y="590" width="160" height="160" as="geometry" />
        </mxCell>
        <mxCell id="7M6Ktfc9YNMzdn7Puqao-71" value="" style="edgeStyle=orthogonalEdgeStyle;rounded=0;orthogonalLoop=1;jettySize=auto;html=1;" edge="1" parent="7M6Ktfc9YNMzdn7Puqao-5" source="7M6Ktfc9YNMzdn7Puqao-68" target="7M6Ktfc9YNMzdn7Puqao-70">
          <mxGeometry relative="1" as="geometry" />
        </mxCell>
        <mxCell id="7M6Ktfc9YNMzdn7Puqao-68" value="isUserLogin &amp;amp;&amp;amp; should track" style="rhombus;whiteSpace=wrap;html=1;rounded=1;" vertex="1" parent="7M6Ktfc9YNMzdn7Puqao-5">
          <mxGeometry x="350" y="780" width="120" height="120" as="geometry" />
        </mxCell>
        <mxCell id="7M6Ktfc9YNMzdn7Puqao-78" value="" style="edgeStyle=orthogonalEdgeStyle;rounded=0;orthogonalLoop=1;jettySize=auto;html=1;" edge="1" parent="7M6Ktfc9YNMzdn7Puqao-5" source="7M6Ktfc9YNMzdn7Puqao-70" target="7M6Ktfc9YNMzdn7Puqao-77">
          <mxGeometry relative="1" as="geometry" />
        </mxCell>
        <mxCell id="7M6Ktfc9YNMzdn7Puqao-70" value="throttleTime for 60s" style="whiteSpace=wrap;html=1;rounded=1;" vertex="1" parent="7M6Ktfc9YNMzdn7Puqao-5">
          <mxGeometry x="350" y="1010" width="120" height="60" as="geometry" />
        </mxCell>
        <mxCell id="7M6Ktfc9YNMzdn7Puqao-79" style="edgeStyle=orthogonalEdgeStyle;rounded=0;orthogonalLoop=1;jettySize=auto;html=1;entryX=1;entryY=0.5;entryDx=0;entryDy=0;" edge="1" parent="7M6Ktfc9YNMzdn7Puqao-5" source="7M6Ktfc9YNMzdn7Puqao-77" target="7M6Ktfc9YNMzdn7Puqao-56">
          <mxGeometry relative="1" as="geometry">
            <mxPoint x="660" y="1180" as="targetPoint" />
            <Array as="points">
              <mxPoint x="490" y="1180" />
              <mxPoint x="490" y="250" />
            </Array>
          </mxGeometry>
        </mxCell>
        <mxCell id="7M6Ktfc9YNMzdn7Puqao-80" value="Any Trigger fired" style="edgeLabel;html=1;align=center;verticalAlign=middle;resizable=0;points=[];" vertex="1" connectable="0" parent="7M6Ktfc9YNMzdn7Puqao-79">
          <mxGeometry x="-0.8231" y="-1" relative="1" as="geometry">
            <mxPoint as="offset" />
          </mxGeometry>
        </mxCell>
        <mxCell id="7M6Ktfc9YNMzdn7Puqao-82" value="" style="edgeStyle=orthogonalEdgeStyle;rounded=0;orthogonalLoop=1;jettySize=auto;html=1;" edge="1" parent="7M6Ktfc9YNMzdn7Puqao-5" source="7M6Ktfc9YNMzdn7Puqao-77" target="7M6Ktfc9YNMzdn7Puqao-81">
          <mxGeometry relative="1" as="geometry" />
        </mxCell>
        <mxCell id="7M6Ktfc9YNMzdn7Puqao-83" value="no any trigger fired after 60s" style="edgeLabel;html=1;align=center;verticalAlign=middle;resizable=0;points=[];" vertex="1" connectable="0" parent="7M6Ktfc9YNMzdn7Puqao-82">
          <mxGeometry x="-0.4778" y="-1" relative="1" as="geometry">
            <mxPoint as="offset" />
          </mxGeometry>
        </mxCell>
        <mxCell id="7M6Ktfc9YNMzdn7Puqao-77" value="start timer (per 60s)" style="whiteSpace=wrap;html=1;rounded=1;" vertex="1" parent="7M6Ktfc9YNMzdn7Puqao-5">
          <mxGeometry x="350" y="1150" width="120" height="60" as="geometry" />
        </mxCell>
        <mxCell id="7M6Ktfc9YNMzdn7Puqao-85" value="" style="edgeStyle=orthogonalEdgeStyle;rounded=0;orthogonalLoop=1;jettySize=auto;html=1;" edge="1" parent="7M6Ktfc9YNMzdn7Puqao-5" source="7M6Ktfc9YNMzdn7Puqao-81" target="7M6Ktfc9YNMzdn7Puqao-84">
          <mxGeometry relative="1" as="geometry" />
        </mxCell>
        <mxCell id="7M6Ktfc9YNMzdn7Puqao-81" value="Change Header Visibility" style="whiteSpace=wrap;html=1;rounded=1;" vertex="1" parent="7M6Ktfc9YNMzdn7Puqao-5">
          <mxGeometry x="335" y="1290" width="150" height="60" as="geometry" />
        </mxCell>
        <mxCell id="7M6Ktfc9YNMzdn7Puqao-87" value="" style="edgeStyle=orthogonalEdgeStyle;rounded=0;orthogonalLoop=1;jettySize=auto;html=1;" edge="1" parent="7M6Ktfc9YNMzdn7Puqao-5" source="7M6Ktfc9YNMzdn7Puqao-84" target="7M6Ktfc9YNMzdn7Puqao-86">
          <mxGeometry relative="1" as="geometry" />
        </mxCell>
        <mxCell id="7M6Ktfc9YNMzdn7Puqao-84" value="Change Footer Visibility" style="whiteSpace=wrap;html=1;rounded=1;" vertex="1" parent="7M6Ktfc9YNMzdn7Puqao-5">
          <mxGeometry x="335" y="1430" width="150" height="60" as="geometry" />
        </mxCell>
        <mxCell id="7M6Ktfc9YNMzdn7Puqao-86" value="Track Logout Timer" style="whiteSpace=wrap;html=1;rounded=1;" vertex="1" parent="7M6Ktfc9YNMzdn7Puqao-5">
          <mxGeometry x="350" y="1570" width="120" height="60" as="geometry" />
        </mxCell>
        <mxCell id="7M6Ktfc9YNMzdn7Puqao-89" value="" style="edgeStyle=orthogonalEdgeStyle;rounded=0;orthogonalLoop=1;jettySize=auto;html=1;entryX=1;entryY=0.5;entryDx=0;entryDy=0;" edge="1" parent="7M6Ktfc9YNMzdn7Puqao-2" source="7M6Ktfc9YNMzdn7Puqao-86" target="7M6Ktfc9YNMzdn7Puqao-15">
          <mxGeometry relative="1" as="geometry">
            <mxPoint x="1240" y="1730" as="targetPoint" />
            <Array as="points">
              <mxPoint x="710" y="1620" />
              <mxPoint x="710" y="545" />
            </Array>
          </mxGeometry>
        </mxCell>
      </root>
    </mxGraphModel>
  </diagram>
</mxfile>
